<?xml version="1.0" standalone="no"?>
<!DOCTYPE svg PUBLIC "-//W3C//DTD SVG 20010904//EN"
 "http://www.w3.org/TR/2001/REC-SVG-20010904/DTD/svg10.dtd">
<svg version="1.0" xmlns="http://www.w3.org/2000/svg"
 width="32.000000pt" height="32.000000pt" viewBox="0 0 32.000000 32.000000"
 preserveAspectRatio="xMidYMid meet">

<g transform="translate(0.000000,32.000000) scale(0.100000,-0.100000)"
fill="#000000" stroke="none">
<path d="M115 271 c-45 -20 -70 -60 -70 -112 0 -42 5 -53 33 -81 28 -28 39
-33 82 -33 43 0 54 5 82 33 28 28 33 39 33 82 0 42 -5 54 -31 81 -33 33 -92
46 -129 30z m94 -25 c67 -35 65 -143 -4 -174 -51 -23 -107 -7 -131 39 -47 91
44 182 135 135z"/>
<path d="M120 192 c0 -4 5 -13 12 -20 8 -8 8 -15 -2 -27 -17 -20 -5 -32 15
-15 12 10 18 10 30 0 20 -17 32 -5 15 15 -10 12 -10 18 0 30 17 20 5 32 -15
15 -12 -10 -19 -10 -27 -2 -14 14 -28 16 -28 4z"/>
</g>
</svg>
